<?xml version="1.0" encoding="utf-8"?>
<!-- Generator: Adobe Illustrator 27.8.0, SVG Export Plug-In . SVG Version: 6.00 Build 0)  -->
<svg version="1.1" xmlns="http://www.w3.org/2000/svg" xmlns:xlink="http://www.w3.org/1999/xlink" x="0px" y="0px"
	 viewBox="0 0 24 24" style="enable-background:new 0 0 24 24;" xml:space="preserve">
<g id="Слой_1">
	<path d="M8.8,19v1.1H5.4c-0.4,0-0.8-0.1-1.1-0.4S3.9,19,3.9,18.6v-3.4H5V19H8.8z"/>
	<g>
		<path d="M20.1,15.2v3.4c0,0.4-0.1,0.8-0.4,1.1s-0.6,0.4-1.1,0.4h-3.4V19H19v-3.8H20.1z"/>
	</g>
	<path d="M8.8,3.9V5H5v3.8H3.9V5.4C3.9,5,4,4.6,4.3,4.3S5,3.9,5.4,3.9H8.8z"/>
	<path d="M20.1,5.4v3.4H19V5h-3.8V3.9h3.4c0.4,0,0.8,0.1,1.1,0.4S20.1,5,20.1,5.4z"/>
</g>
<g id="Слой_2__x28_копия_x29_">
	<rect x="7.3" y="12" width="1.3" height="1.3"/>
	<rect x="6" y="10.7" width="1.3" height="1.3"/>
	<rect x="12" y="6" width="1.3" height="1.3"/>
	<path d="M6,6v4h4V6H6z M9,9H7V7h2V9z"/>
	<path d="M6,14v4h4v-4H6z M9,17H7v-2h2V17z"/>
	<path d="M14,6v4h4V6H14z M17,9h-2V7h2V9z"/>
	<polygon points="10,13.3 10,12 8.7,12 8.7,10.7 11.3,10.7 11.3,13.3 	"/>
	<polygon points="10.7,10 10.7,7.3 12,7.3 12,8.7 13.3,8.7 13.3,10 	"/>
	<rect x="15.5" y="7.5" width="1" height="1"/>
	<rect x="7.5" y="15.5" width="1" height="1"/>
	<rect x="7.5" y="7.5" width="1" height="1"/>
</g>
<g id="Слой_4">
	<path d="M17.4,15.1c0-0.1,0-0.2,0-0.4l0.7-0.6l-0.6-1l-0.8,0.3c-0.1-0.1-0.2-0.1-0.3-0.2c-0.1-0.1-0.2-0.1-0.3-0.1l-0.2-0.9h-1.1
		l-0.2,0.9c-0.1,0-0.2,0.1-0.3,0.1c-0.1,0.1-0.2,0.1-0.3,0.2l-0.8-0.3l-0.6,1l0.7,0.6c0,0.1,0,0.2,0,0.4s0,0.2,0,0.4l-0.7,0.6l0.6,1
		l0.8-0.3c0.1,0.1,0.2,0.1,0.3,0.2c0.1,0.1,0.2,0.1,0.3,0.1l0.2,0.9h1.1l0.2-0.9c0.1,0,0.2-0.1,0.3-0.1c0.1-0.1,0.2-0.1,0.3-0.2
		l0.8,0.3l0.6-1l-0.7-0.6C17.4,15.4,17.4,15.3,17.4,15.1z M16.1,15.9c-0.2,0.2-0.5,0.3-0.8,0.3c-0.3,0-0.6-0.1-0.8-0.3
		c-0.2-0.2-0.3-0.5-0.3-0.8s0.1-0.6,0.3-0.8c0.2-0.2,0.5-0.3,0.8-0.3c0.3,0,0.6,0.1,0.8,0.3c0.2,0.2,0.3,0.5,0.3,0.8
		S16.3,15.7,16.1,15.9z"/>
</g>
</svg>
